<svg xmlns="http://www.w3.org/2000/svg" width="276" height="68" viewBox="0 0 276 68">
<g>
<path d="M 0.00 0.00 L 276.00 0.00 L 276.00 68.00 L 0.00 68.00 ZM 34.50 60.59 C36.50,61.48 42.01,61.93 51.10,61.96 C63.61,62.00 64.98,61.82 68.10,59.73 C73.93,55.83 75.00,52.33 75.00,37.00 C75.00,21.67 73.93,18.17 68.10,14.27 C64.99,12.19 63.58,12.00 51.17,12.00 C35.14,12.00 30.82,13.42 27.18,19.89 C25.26,23.31 25.00,25.27 25.00,36.32 C25.00,43.22 25.48,50.14 26.07,51.68 C27.49,55.43 30.82,58.95 34.50,60.59 ZM 114.70 45.22 C117.20,47.98 121.08,47.13 123.49,43.29 C125.74,39.69 128.00,39.01 128.00,41.93 C128.00,46.40 134.41,48.62 138.56,45.58 C140.25,44.33 140.72,44.36 142.25,45.73 C143.67,47.01 144.49,47.10 146.50,46.18 C148.37,45.33 149.63,45.33 151.53,46.19 C153.37,47.03 154.35,47.05 155.16,46.24 C155.96,45.44 156.75,45.45 158.08,46.28 C159.09,46.91 160.13,47.21 160.39,46.94 C161.00,46.34 166.98,22.98 166.99,21.18 C167.00,20.38 166.11,19.99 164.75,20.18 C163.20,20.40 162.41,21.28 162.22,23.00 C161.48,29.66 158.64,38.92 156.53,41.56 C153.52,45.32 152.56,44.32 153.76,38.70 C154.55,34.99 154.41,33.87 152.89,31.88 C151.18,29.63 150.93,29.58 148.31,31.03 C146.79,31.86 144.57,34.11 143.38,36.03 C142.19,37.94 140.00,40.73 138.50,42.23 C136.33,44.42 135.42,44.76 133.90,43.94 C131.60,42.72 131.38,38.21 133.47,35.44 C134.85,33.62 134.94,33.61 134.97,35.32 C135.01,37.55 137.82,37.23 139.33,34.83 C140.10,33.63 140.02,32.73 139.07,31.58 C136.95,29.03 134.01,29.74 130.40,33.68 C128.54,35.70 126.89,37.17 126.71,36.93 C126.54,36.69 125.62,35.26 124.67,33.75 C121.76,29.08 116.24,30.61 113.92,36.72 C112.55,40.33 112.80,43.12 114.70,45.22 ZM 53.17 51.28 C49.57,54.64 46.18,55.62 45.37,53.53 C44.59,51.50 47.41,44.01 50.00,41.23 L 51.96 39.13 L 46.44 37.06 C43.41,35.93 40.53,35.00 40.05,35.00 C38.08,35.00 33.90,28.66 34.20,26.11 C34.46,23.86 35.04,23.46 38.38,23.18 C43.63,22.75 47.42,24.51 51.50,29.27 L 54.92 33.26 L 54.34 29.70 C53.86,26.77 54.21,25.69 56.34,23.57 C59.91,20.00 62.67,20.25 64.61,24.30 C66.71,28.71 65.12,34.75 60.52,39.85 C58.66,41.90 56.85,44.75 56.49,46.18 C56.13,47.61 54.64,49.90 53.17,51.28 ZM 176.48 61.34 C177.39,62.25 178.82,63.00 179.65,63.00 C182.33,63.00 186.64,57.61 188.46,51.99 C190.84,44.64 192.32,43.08 194.80,45.32 C198.36,48.54 203.56,46.96 208.75,41.06 C210.98,38.52 211.59,37.00 210.37,37.00 C210.03,37.00 208.00,38.58 205.87,40.50 C203.74,42.42 201.14,44.00 200.10,44.00 C196.81,44.00 197.08,41.49 200.62,39.06 C202.50,37.77 204.31,35.63 204.64,34.29 C206.42,27.19 196.73,30.29 194.01,37.68 C192.03,43.06 191.44,43.58 189.51,41.65 C188.11,40.25 188.09,39.78 189.35,37.78 C190.14,36.53 191.09,34.49 191.46,33.25 C192.09,31.15 191.83,31.00 187.65,31.00 C182.13,31.00 180.00,31.76 180.00,33.72 C180.00,34.90 180.76,35.08 183.50,34.57 C185.43,34.20 187.00,34.21 187.00,34.59 C187.00,35.91 182.82,42.00 181.92,42.00 C180.46,42.00 180.85,45.01 182.39,45.60 C183.38,45.98 182.66,47.19 179.89,49.82 C175.34,54.12 173.95,58.81 176.48,61.34 ZM 230.44 53.91 C230.78,54.46 231.66,54.68 232.39,54.40 C233.30,54.05 233.68,52.07 233.61,48.06 C233.53,43.72 233.96,41.71 235.31,40.21 C236.55,38.84 236.75,38.08 235.93,37.81 C235.01,37.50 235.01,35.45 235.96,28.76 C236.64,24.01 236.90,19.64 236.54,19.06 C235.43,17.26 232.42,17.88 229.61,20.49 C227.02,22.88 221.00,34.23 221.00,36.71 C221.00,37.38 220.04,38.44 218.86,39.07 C217.36,39.88 217.09,40.44 217.94,40.96 C218.86,41.53 218.78,42.59 217.57,45.48 C216.71,47.55 216.00,50.14 216.00,51.24 C216.00,53.08 216.18,53.12 218.20,51.79 C220.32,50.38 221.13,48.64 222.45,42.69 C223.01,40.15 223.42,39.91 226.78,40.19 L 230.50 40.50 L 230.16 46.70 C229.97,50.11 230.10,53.35 230.44,53.91 ZM 239.71 51.22 C241.24,52.17 243.21,52.96 244.08,52.97 C246.14,53.01 249.25,49.54 251.91,44.25 C253.34,41.40 254.69,40.00 256.02,40.00 C257.11,40.00 258.00,39.55 258.00,39.00 C258.00,38.45 257.27,38.00 256.38,38.00 C255.14,38.00 254.91,37.37 255.38,35.25 C256.79,28.90 257.25,19.27 256.16,18.60 C254.26,17.42 249.00,20.94 247.28,24.53 C245.44,28.40 246.37,34.98 248.89,35.80 C249.95,36.15 250.12,35.62 249.61,33.59 C248.79,30.33 250.46,23.69 252.53,21.97 C253.37,21.28 254.25,20.92 254.50,21.16 C254.98,21.64 251.56,36.77 250.80,37.54 C250.54,37.79 248.18,38.40 245.55,38.89 C236.44,40.59 233.28,47.26 239.71,51.22 ZM 99.69 52.55 C100.50,53.36 101.63,53.73 102.20,53.37 C103.65,52.48 108.26,42.08 111.46,32.50 C112.93,28.10 114.75,23.55 115.50,22.38 C116.86,20.29 115.94,18.00 113.74,18.00 C112.49,18.00 108.73,27.04 105.02,39.00 C102.12,48.32 101.65,49.22 100.79,47.00 C99.46,43.55 100.38,28.41 102.24,23.24 C103.81,18.88 103.35,17.54 100.66,18.58 C95.35,20.62 94.58,47.44 99.69,52.55 ZM 232.67 31.50 C231.43,37.13 231.17,37.52 228.27,37.81 C226.58,37.97 224.96,37.74 224.68,37.29 C223.84,35.93 227.80,25.84 230.16,23.33 C233.01,20.30 235.21,20.26 234.51,23.25 C234.22,24.49 233.40,28.20 232.67,31.50 ZM 168.53 45.65 C169.55,46.39 170.75,47.00 171.19,47.00 C172.36,47.00 180.00,39.19 180.00,38.00 C180.00,36.18 178.43,36.96 175.00,40.50 C173.13,42.43 171.24,43.64 170.79,43.19 C170.35,42.75 170.66,40.16 171.48,37.44 C173.33,31.35 173.34,31.00 171.62,31.00 C169.32,31.00 167.96,33.53 167.31,39.04 C166.79,43.45 166.98,44.52 168.53,45.65 ZM 247.35 48.25 C246.58,49.76 245.35,51.00 244.63,51.00 C242.86,51.00 240.00,47.74 240.00,45.73 C240.00,43.50 243.86,41.00 247.29,41.00 C249.78,41.00 250.05,41.28 249.44,43.25 C249.06,44.49 248.12,46.74 247.35,48.25 ZM 148.93 41.59 C147.57,43.23 145.00,43.48 145.00,41.97 C145.00,39.45 148.08,33.86 149.24,34.27 C150.76,34.81 150.56,39.62 148.93,41.59 ZM 183.71 54.02 C181.15,58.86 179.00,60.27 179.00,57.10 C179.00,54.89 184.44,48.11 185.42,49.09 C185.74,49.41 184.97,51.63 183.71,54.02 ZM 122.00 35.92 L 122.00 36.09 C122.00,37.88 122.00,38.67 121.69,38.82 C121.45,38.94 121.02,38.66 120.25,38.17 L 120.15 38.11 C118.56,37.11 118.96,33.85 120.75,33.25 C121.57,32.98 122.00,33.89 122.00,35.92 ZM 171.53 25.05 C172.44,26.52 174.43,25.68 174.82,23.67 C175.01,22.70 174.51,22.00 173.63,22.00 C171.77,22.00 170.65,23.63 171.53,25.05 ZM 120.36 42.50 C120.05,43.33 119.16,44.00 118.39,44.00 C117.63,44.00 117.00,43.33 117.00,42.50 C117.00,41.67 117.89,41.00 118.97,41.00 C120.31,41.00 120.75,41.48 120.36,42.50 Z" fill="rgb(30,24,21)"/>
<path d="M 256.02 40.00 C254.69,40.00 253.34,41.40 251.91,44.25 C253.08,41.91 254.40,40.00 254.85,40.00 C255.19,40.00 255.50,39.11 255.63,37.86 C255.82,37.96 256.07,38.00 256.38,38.00 C257.27,38.00 258.00,38.45 258.00,39.00 C258.00,39.55 257.11,40.00 256.02,40.00 ZM 255.96 32.15 C256.10,30.32 256.29,28.27 256.50,26.39 C256.61,25.36 256.69,24.44 256.75,23.63 C256.69,26.15 256.41,29.26 255.96,32.15 ZM 246.38 30.74 C246.43,31.05 246.49,31.35 246.57,31.66 C247.08,33.69 248.13,35.55 248.89,35.80 C247.53,35.36 246.63,33.22 246.38,30.74 ZM 256.55 19.45 C256.05,18.05 254.87,18.11 252.67,19.17 C254.08,18.42 255.39,18.13 256.16,18.60 C256.32,18.70 256.45,19.00 256.55,19.45 Z" fill="rgb(131,79,86)"/>
<path d="M 114.70 45.22 C112.80,43.12 112.55,40.33 113.92,36.72 C116.24,30.61 121.76,29.08 124.67,33.75 C125.62,35.26 126.54,36.69 126.71,36.93 C126.89,37.17 128.54,35.70 130.40,33.68 C134.01,29.74 136.95,29.03 139.07,31.58 C140.02,32.73 140.10,33.63 139.33,34.83 C137.82,37.23 135.01,37.55 134.97,35.32 C134.94,33.61 134.85,33.62 133.47,35.44 C131.38,38.21 131.60,42.72 133.90,43.94 C135.42,44.76 136.33,44.42 138.50,42.23 C140.00,40.73 142.19,37.94 143.38,36.03 C144.57,34.11 146.79,31.86 148.31,31.03 C150.93,29.58 151.18,29.63 152.89,31.88 C154.41,33.87 154.55,34.99 153.76,38.70 C152.56,44.32 153.52,45.32 156.53,41.56 C158.64,38.92 161.48,29.66 162.22,23.00 C162.41,21.28 163.20,20.40 164.75,20.18 C166.11,19.99 167.00,20.38 166.99,21.18 C166.98,22.98 161.00,46.34 160.39,46.94 C160.13,47.21 159.09,46.91 158.08,46.28 C156.75,45.45 155.96,45.44 155.16,46.24 C154.35,47.05 153.37,47.03 151.53,46.19 C149.63,45.33 148.37,45.33 146.50,46.18 C144.49,47.10 143.67,47.01 142.25,45.73 C140.72,44.36 140.25,44.33 138.56,45.58 C134.41,48.62 128.00,46.40 128.00,41.93 C128.00,39.01 125.74,39.69 123.49,43.29 C121.08,47.13 117.20,47.98 114.70,45.22 ZM 176.48 61.34 C173.95,58.81 175.34,54.12 179.89,49.82 C182.66,47.19 183.38,45.98 182.39,45.60 C180.85,45.01 180.46,42.00 181.92,42.00 C182.82,42.00 187.00,35.91 187.00,34.59 C187.00,34.21 185.43,34.20 183.50,34.57 C180.76,35.08 180.00,34.90 180.00,33.72 C180.00,31.76 182.13,31.00 187.65,31.00 C191.83,31.00 192.09,31.15 191.46,33.25 C191.09,34.49 190.14,36.53 189.35,37.78 C188.09,39.78 188.11,40.25 189.51,41.65 C191.44,43.58 192.03,43.06 194.01,37.68 C196.73,30.29 206.42,27.19 204.64,34.29 C204.31,35.63 202.50,37.77 200.62,39.06 C197.08,41.49 196.81,44.00 200.10,44.00 C201.14,44.00 203.74,42.42 205.87,40.50 C208.00,38.58 210.03,37.00 210.37,37.00 C211.59,37.00 210.98,38.52 208.75,41.06 C203.56,46.96 198.36,48.54 194.80,45.32 C192.32,43.08 190.84,44.64 188.46,51.99 C186.64,57.61 182.33,63.00 179.65,63.00 C178.82,63.00 177.39,62.25 176.48,61.34 ZM 99.69 52.55 C94.58,47.44 95.35,20.62 100.66,18.58 C103.35,17.54 103.81,18.88 102.24,23.24 C100.38,28.41 99.46,43.55 100.79,47.00 C101.65,49.22 102.12,48.32 105.02,39.00 C108.73,27.04 112.49,18.00 113.74,18.00 C115.94,18.00 116.86,20.29 115.50,22.38 C114.75,23.55 112.93,28.10 111.46,32.50 C108.26,42.08 103.65,52.48 102.20,53.37 C101.63,53.73 100.50,53.36 99.69,52.55 ZM 168.53 45.65 C166.98,44.52 166.79,43.45 167.31,39.04 C167.96,33.53 169.32,31.00 171.62,31.00 C173.34,31.00 173.33,31.35 171.48,37.44 C170.66,40.16 170.35,42.75 170.79,43.19 C171.24,43.64 173.13,42.43 175.00,40.50 C178.43,36.96 180.00,36.18 180.00,38.00 C180.00,39.19 172.36,47.00 171.19,47.00 C170.75,47.00 169.55,46.39 168.53,45.65 ZM 148.93 41.59 C150.56,39.62 150.76,34.81 149.24,34.27 C148.08,33.86 145.00,39.45 145.00,41.97 C145.00,43.48 147.57,43.23 148.93,41.59 ZM 183.71 54.02 C184.97,51.63 185.74,49.41 185.42,49.09 C184.44,48.11 179.00,54.89 179.00,57.10 C179.00,60.27 181.15,58.86 183.71,54.02 ZM 122.00 35.92 C122.00,33.89 121.57,32.98 120.75,33.25 C118.96,33.85 118.56,37.11 120.15,38.11 L 120.25 38.17 C121.02,38.66 121.45,38.94 121.69,38.82 C122.00,38.67 122.00,37.88 122.00,36.09 ZM 171.53 25.05 C170.65,23.63 171.77,22.00 173.63,22.00 C174.51,22.00 175.01,22.70 174.82,23.67 C174.43,25.68 172.44,26.52 171.53,25.05 ZM 120.36 42.50 C120.75,41.48 120.31,41.00 118.97,41.00 C117.89,41.00 117.00,41.67 117.00,42.50 C117.00,43.33 117.63,44.00 118.39,44.00 C119.16,44.00 120.05,43.33 120.36,42.50 Z" fill="rgb(228,226,223)"/>
<path d="M 34.50 60.59 C30.82,58.95 27.49,55.43 26.07,51.68 C25.48,50.14 25.00,43.22 25.00,36.32 C25.00,25.27 25.26,23.31 27.18,19.89 C30.82,13.42 35.14,12.00 51.17,12.00 C63.58,12.00 64.99,12.19 68.10,14.27 C73.93,18.17 75.00,21.67 75.00,37.00 C75.00,52.33 73.93,55.83 68.10,59.73 C64.98,61.82 63.61,62.00 51.10,61.96 C42.01,61.93 36.50,61.48 34.50,60.59 ZM 53.17 51.28 C54.64,49.90 56.13,47.61 56.49,46.18 C56.85,44.75 58.66,41.90 60.52,39.85 C65.12,34.75 66.71,28.71 64.61,24.30 C62.67,20.25 59.91,20.00 56.34,23.57 C54.21,25.69 53.86,26.77 54.34,29.70 L 54.92 33.26 L 51.50 29.27 C47.42,24.51 43.63,22.75 38.38,23.18 C35.04,23.46 34.46,23.86 34.20,26.11 C33.90,28.66 38.08,35.00 40.05,35.00 C40.53,35.00 43.41,35.93 46.44,37.06 L 51.96 39.13 L 50.00 41.23 C47.41,44.01 44.59,51.50 45.37,53.53 C46.18,55.62 49.57,54.64 53.17,51.28 ZM 230.44 53.91 C230.10,53.35 229.97,50.11 230.16,46.70 L 230.50 40.50 L 226.78 40.19 C223.42,39.91 223.01,40.15 222.45,42.69 C221.13,48.64 220.32,50.38 218.20,51.79 C216.18,53.12 216.00,53.08 216.00,51.24 C216.00,50.14 216.71,47.55 217.57,45.48 C218.78,42.59 218.86,41.53 217.94,40.96 C217.09,40.44 217.36,39.88 218.86,39.07 C220.04,38.44 221.00,37.38 221.00,36.71 C221.00,34.23 227.02,22.88 229.61,20.49 C232.42,17.88 235.43,17.26 236.54,19.06 C236.90,19.64 236.64,24.01 235.96,28.76 C235.01,35.45 235.01,37.50 235.93,37.81 C236.75,38.08 236.55,38.84 235.31,40.21 C233.96,41.71 233.53,43.72 233.61,48.06 C233.68,52.07 233.30,54.05 232.39,54.40 C231.66,54.68 230.78,54.46 230.44,53.91 ZM 232.67 31.50 C233.40,28.20 234.22,24.49 234.51,23.25 C235.21,20.26 233.01,20.30 230.16,23.33 C227.80,25.84 223.84,35.93 224.68,37.29 C224.96,37.74 226.58,37.97 228.27,37.81 C231.17,37.52 231.43,37.13 232.67,31.50 ZM 239.71 51.22 C233.28,47.26 236.44,40.59 245.55,38.89 C248.18,38.40 250.54,37.79 250.80,37.54 C251.56,36.77 254.98,21.64 254.50,21.16 C254.25,20.92 253.37,21.28 252.53,21.97 C250.46,23.69 248.79,30.33 249.61,33.59 C250.12,35.62 249.95,36.15 248.89,35.80 C248.13,35.55 247.08,33.69 246.57,31.66 C245.37,26.92 247.69,21.73 251.99,19.50 C256.64,17.10 257.38,18.22 256.50,26.39 C256.07,30.30 255.71,34.96 255.69,36.75 C255.67,38.54 255.29,40.00 254.85,40.00 C254.40,40.00 253.08,41.91 251.91,44.25 C249.25,49.54 246.14,53.01 244.08,52.97 C243.21,52.96 241.24,52.17 239.71,51.22 ZM 247.35 48.25 C248.12,46.74 249.06,44.49 249.44,43.25 C250.05,41.28 249.78,41.00 247.29,41.00 C243.86,41.00 240.00,43.50 240.00,45.73 C240.00,47.74 242.86,51.00 244.63,51.00 C245.35,51.00 246.58,49.76 247.35,48.25 Z" fill="rgb(233,66,96)"/>
</g>
</svg>